<?xml version="1.0" encoding="utf-8"?>
<!-- Generator: Adobe Illustrator 24.3.0, SVG Export Plug-In . SVG Version: 6.00 Build 0)  -->
<svg version="1.1" id="Layer_1" xmlns="http://www.w3.org/2000/svg" xmlns:xlink="http://www.w3.org/1999/xlink" x="0px" y="0px"
	 viewBox="0 0 256 256" style="enable-background:new 0 0 256 256;" xml:space="preserve">
<style type="text/css">
	.st0{fill:#99CC33;stroke:#FFFFFF;stroke-width:2.8918;stroke-miterlimit:10;}
</style>
<g>
	<ellipse class="st0" cx="127.25" cy="159.24" rx="61.48" ry="87.49"/>
	<path class="st0" d="M127.25,214.14c-16.91,0-32.2,4.68-43.2,12.2c11.1,15.61,26.36,25.25,43.2,25.25c16.85,0,32.1-9.64,43.2-25.25
		C159.45,218.81,144.16,214.14,127.25,214.14z"/>
	<polygon class="st0" points="162.46,56.76 127.25,65.72 91.72,56.76 91.72,46.89 127.25,55.85 162.46,46.89 	"/>
	<polygon class="st0" points="94.69,117.15 66.31,88.78 66.31,4.41 101.78,27.58 101.78,93.84 	"/>
	<polygon class="st0" points="159.81,117.15 188.18,88.78 188.18,4.41 152.72,27.58 152.72,93.84 	"/>
	<polygon class="st0" points="133.4,112.67 127.25,122.19 121.11,112.67 121.11,42.9 133.4,42.9 	"/>
	<rect x="123.65" y="155.19" class="st0" width="6.43" height="11.87"/>
	<rect x="64.06" y="149.25" class="st0" width="6.43" height="11.87"/>
	<rect x="185.51" y="147.37" class="st0" width="6.43" height="11.87"/>
</g>
</svg>
