<?xml version="1.0" encoding="utf-8"?>
<!-- Generator: Adobe Illustrator 24.3.0, SVG Export Plug-In . SVG Version: 6.00 Build 0)  -->
<svg version="1.1" id="Layer_1" xmlns="http://www.w3.org/2000/svg" xmlns:xlink="http://www.w3.org/1999/xlink" x="0px" y="0px"
	 viewBox="0 0 256 256" style="enable-background:new 0 0 256 256;" xml:space="preserve">
<style type="text/css">
	.st0{fill:#00CCCC;stroke:#FFFFFF;stroke-width:2.8756;stroke-miterlimit:10;}
</style>
<path class="st0" d="M169.34,50c0-20.56-12.76-46.43-41.34-46.43S86.53,29.44,86.53,50L76.47,194.08h103.05L169.34,50z"/>
<g>
	<path class="st0" d="M128,252.43c16.48,0,31.26-10.51,41.42-24.21H86.58C96.74,241.92,111.52,252.43,128,252.43z"/>
	<path class="st0" d="M179.76,194.45l-0.03-0.37H76.27l-0.03,0.37c0,10.56,3.91,22.89,10.5,33.76h82.52
		C175.85,217.34,179.76,205.01,179.76,194.45z"/>
</g>
<rect x="91.95" y="187.32" class="st0" width="11.39" height="13.52"/>
<polygon class="st0" points="149.96,69.04 188.87,51.69 188.87,10.88 149.96,28.22 "/>
<polygon class="st0" points="106.04,69.04 67.13,51.69 67.13,10.88 106.04,28.22 "/>
<rect x="82.26" y="79.06" class="st0" width="91.48" height="9"/>
<rect x="91.95" y="73.37" class="st0" width="13.83" height="20.36"/>
</svg>
