<?xml version="1.0" encoding="utf-8"?>
<!-- Generator: Adobe Illustrator 24.3.0, SVG Export Plug-In . SVG Version: 6.00 Build 0)  -->
<svg version="1.1" id="Layer_1" xmlns="http://www.w3.org/2000/svg" xmlns:xlink="http://www.w3.org/1999/xlink" x="0px" y="0px"
	 viewBox="0 0 256 256" style="enable-background:new 0 0 256 256;" xml:space="preserve">
<style type="text/css">
	.st0{fill:#666666;stroke:#FFFFFF;stroke-width:2;stroke-miterlimit:10;}
</style>
<ellipse class="st0" cx="128" cy="139.91" rx="42.52" ry="60.51"/>
<g>
	<path class="st0" d="M7.61,121.01c21.76-13.07,49.99-6.02,63.05,15.74c1.86,3.1,3.3,6.33,4.36,9.62
		c2.43-10.59,0.93-22.1-5.11-32.16C57.52,93.58,30.75,86.9,10.11,99.29C-5.06,108.4-0.82,126.07,7.61,121.01z"/>
	<path class="st0" d="M25.82,137.89c13.13-11.46,33.07-10.1,44.52,3.04c1.63,1.87,2.99,3.88,4.11,5.98
		c0.36-7.45-2.04-15.05-7.33-21.12c-10.86-12.46-29.77-13.75-42.22-2.88C15.74,130.89,20.73,142.33,25.82,137.89z"/>
	<path class="st0" d="M41.26,147.63c8-8.6,21.45-9.09,30.05-1.09c1.22,1.14,2.28,2.39,3.17,3.72c-0.28-5.02-2.42-9.95-6.4-13.64
		c-8.16-7.58-20.92-7.12-28.5,1.04C34.01,143.65,38.16,150.96,41.26,147.63z"/>
</g>
<g>
	<path class="st0" d="M248.39,124.44c-21.76-13.07-49.99-6.02-63.05,15.74c-1.86,3.1-3.3,6.33-4.36,9.62
		c-2.43-10.59-0.93-22.1,5.11-32.16c12.39-20.63,39.17-27.32,59.8-14.92C261.06,111.83,256.82,129.5,248.39,124.44z"/>
	<path class="st0" d="M230.18,141.32c-13.13-11.46-33.07-10.1-44.52,3.04c-1.63,1.87-2.99,3.88-4.11,5.98
		c-0.36-7.45,2.04-15.05,7.33-21.12c10.86-12.46,29.77-13.75,42.22-2.88C240.26,134.32,235.27,145.76,230.18,141.32z"/>
	<path class="st0" d="M214.74,151.06c-8-8.6-21.45-9.09-30.05-1.09c-1.22,1.14-2.28,2.39-3.17,3.72c0.28-5.02,2.42-9.95,6.4-13.64
		c8.16-7.58,20.92-7.12,28.5,1.04C221.99,147.08,217.84,154.39,214.74,151.06z"/>
</g>
<path class="st0" d="M128,177.88c-11.7,0-22.27,3.23-29.88,8.44c7.68,10.8,18.23,17.47,29.88,17.47s22.2-6.67,29.88-17.47
	C150.27,181.11,139.7,177.88,128,177.88z"/>
<polygon class="st0" points="152.35,69.03 128,75.22 103.43,69.03 103.43,62.2 128,68.4 152.35,62.2 "/>
<polygon class="st0" points="105.48,110.8 85.86,91.18 85.86,32.83 110.39,48.85 110.39,94.68 "/>
<polygon class="st0" points="150.52,110.8 170.14,91.18 170.14,32.83 145.61,48.85 145.61,94.68 "/>
<polygon class="st0" points="132.25,107.69 128,114.28 123.75,107.69 123.75,59.44 132.25,59.44 "/>
<path class="st0" d="M128.07,121.49c-4.07,0-7.88,1.11-11.15,3.05l3.67,6.36l5.3,9.17c0.62-0.42,1.37-0.66,2.18-0.66
	c0.81,0,1.55,0.24,2.18,0.66l5.3-9.17l3.67-6.36C135.95,122.61,132.14,121.49,128.07,121.49z"/>
<path class="st0" d="M106.77,158.38c2.04,3.53,4.9,6.27,8.21,8.13l3.67-6.36l5.3-9.17c-0.67-0.33-1.26-0.86-1.66-1.55
	c-0.4-0.7-0.57-1.47-0.52-2.22l-10.59,0h-7.35C103.8,151,104.74,154.85,106.77,158.38z"/>
<path class="st0" d="M149.36,158.38c2.04-3.53,2.98-7.38,2.94-11.18h-7.35l-10.59,0c0.05,0.75-0.11,1.52-0.52,2.22
	c-0.4,0.7-0.99,1.22-1.66,1.55l5.3,9.17l3.67,6.36C144.46,164.64,147.33,161.9,149.36,158.38z"/>
<circle class="st0" cx="128.07" cy="146.08" r="7.12"/>
</svg>
