<svg id="Layer_1" data-name="Layer 1" xmlns="http://www.w3.org/2000/svg" viewBox="0 0 102.71 94.56"><defs><style>.cls-1,.cls-2{fill:#979695;}.cls-2{stroke:#fff;}.cls-2,.cls-3{stroke-miterlimit:10;}.cls-3{fill:none;stroke:#979695;}</style></defs><circle class="cls-1" cx="46.79" cy="41.37" r="5.82"/><circle class="cls-1" cx="55.31" cy="44.58" r="5.82"/><circle class="cls-1" cx="47.94" cy="50.4" r="5.82"/><circle class="cls-1" cx="53.76" cy="56.23" r="5.82"/><circle class="cls-1" cx="47.94" cy="62.05" r="5.82"/><circle class="cls-1" cx="52.61" cy="64.31" r="5.82"/><circle class="cls-1" cx="49.48" cy="57.35" r="5.82"/><circle class="cls-1" cx="53.76" cy="51.54" r="5.82"/><path class="cls-1" d="M93,96.21a5.82,5.82,0,0,0-3.88-5.48,5.81,5.81,0,0,0-5.56-4.1,5.67,5.67,0,0,0-2,.37,6.44,6.44,0,0,0-.8-.57,5.81,5.81,0,0,0-5.17-3.16,5.91,5.91,0,0,0-1.12.11,5.82,5.82,0,0,0-5.7-4.64,5.82,5.82,0,0,0-11.13-2.38c-.21,0-.42,0-.63,0a5.81,5.81,0,0,0-5.45,3.8,5.78,5.78,0,0,0-2.81,2.13,5.29,5.29,0,0,0-1.06-.1A5.82,5.82,0,0,0,41.85,88c0,.11,0,.22,0,.33A5.82,5.82,0,1,0,41,99.52a5.83,5.83,0,0,0,7.58,1.8,5.8,5.8,0,0,0,9.2.93,5.8,5.8,0,0,0,9.2,1.57,5.79,5.79,0,0,0,7.7.3,5.79,5.79,0,0,0,7.58-.19,5.55,5.55,0,0,0,1.35.17A5.83,5.83,0,0,0,88.09,102,5.83,5.83,0,0,0,93,96.21Z" transform="translate(-11.39 -10.87)"/><path class="cls-2" d="M96.23,36.87A12.65,12.65,0,0,0,83.72,24.23a12.62,12.62,0,0,0-20-4.92,12.62,12.62,0,0,0-18.43,2.07,12.64,12.64,0,0,0-7,24.21,12.63,12.63,0,0,0,12,8.57A12.49,12.49,0,0,0,55.51,53a12.57,12.57,0,0,0,13.23,1,12.62,12.62,0,0,0,16.6-4.65A12.64,12.64,0,0,0,96.23,36.87Z" transform="translate(-11.39 -10.87)"/><ellipse class="cls-3" cx="51.74" cy="48.08" rx="40.58" ry="8.15"/><ellipse class="cls-1" cx="24.85" cy="42.16" rx="2.85" ry="1.26"/><ellipse class="cls-1" cx="20.53" cy="43.32" rx="2.85" ry="1.26"/><ellipse class="cls-1" cx="17.05" cy="44.58" rx="2.85" ry="1.26"/><ellipse class="cls-1" cx="14.02" cy="45.71" rx="2.85" ry="1.26"/><ellipse class="cls-1" cx="11.89" cy="47.52" rx="2.85" ry="1.26"/><ellipse class="cls-1" cx="12.6" cy="49.34" rx="2.85" ry="1.26"/><ellipse class="cls-1" cx="14.47" cy="50.89" rx="2.85" ry="1.26"/><ellipse class="cls-1" cx="15.92" cy="51.54" rx="2.85" ry="1.26"/><ellipse class="cls-1" cx="18.77" cy="53.13" rx="2.85" ry="1.26"/><ellipse class="cls-1" cx="21.03" cy="53.94" rx="2.85" ry="1.26"/><ellipse class="cls-1" cx="24.85" cy="54.39" rx="2.85" ry="1.26"/><ellipse class="cls-1" cx="27.71" cy="54.39" rx="2.85" ry="1.26"/><ellipse class="cls-1" cx="30.56" cy="54.97" rx="2.85" ry="1.26"/><ellipse class="cls-1" cx="31.85" cy="55.65" rx="2.85" ry="1.26"/><ellipse class="cls-1" cx="34.05" cy="55.65" rx="2.85" ry="1.26"/><ellipse class="cls-1" cx="35.08" cy="55.65" rx="2.85" ry="1.26"/><ellipse class="cls-1" cx="37.27" cy="55.65" rx="2.85" ry="1.26"/><ellipse class="cls-1" cx="40.97" cy="56.9" rx="2.85" ry="1.26"/><ellipse class="cls-1" cx="47.55" cy="57.35" rx="2.85" ry="1.26"/><ellipse class="cls-1" cx="48.95" cy="56.46" rx="2.85" ry="1.26"/><ellipse class="cls-1" cx="60.05" cy="56.09" rx="2.85" ry="1.26"/><ellipse class="cls-1" cx="60.69" cy="57.35" rx="2.85" ry="1.26"/><ellipse class="cls-1" cx="65.76" cy="56.23" rx="2.85" ry="1.26"/><ellipse class="cls-1" cx="69.69" cy="55.65" rx="2.85" ry="1.26"/><ellipse class="cls-1" cx="74.21" cy="55.65" rx="2.85" ry="1.26"/><ellipse class="cls-1" cx="77.06" cy="54.39" rx="2.85" ry="1.26"/><ellipse class="cls-1" cx="77.97" cy="54.39" rx="2.85" ry="1.26"/><ellipse class="cls-1" cx="78.77" cy="54.39" rx="2.85" ry="1.26"/><ellipse class="cls-1" cx="81.98" cy="53.71" rx="2.85" ry="1.26"/><ellipse class="cls-1" cx="84.84" cy="52.79" rx="2.85" ry="1.26"/><ellipse class="cls-1" cx="87.03" cy="51.54" rx="2.85" ry="1.26"/><ellipse class="cls-1" cx="89.47" cy="50.4" rx="2.85" ry="1.26"/><ellipse class="cls-1" cx="90.37" cy="49.34" rx="2.85" ry="1.26"/><ellipse class="cls-1" cx="92.32" cy="48.08" rx="2.85" ry="1.26"/><ellipse class="cls-1" cx="89.89" cy="46.47" rx="2.85" ry="1.26"/><ellipse class="cls-1" cx="88.21" cy="45.71" rx="2.85" ry="1.26"/><ellipse class="cls-1" cx="88.7" cy="44.46" rx="2.85" ry="1.26"/><ellipse class="cls-1" cx="84.84" cy="43.42" rx="2.85" ry="1.26"/><ellipse class="cls-1" cx="82.5" cy="42.94" rx="2.85" ry="1.26"/><ellipse class="cls-1" cx="81.63" cy="42.94" rx="2.85" ry="1.26"/><ellipse class="cls-1" cx="79.92" cy="42.94" rx="2.85" ry="1.26"/><ellipse class="cls-1" cx="77.6" cy="41.37" rx="2.85" ry="1.26"/><ellipse class="cls-1" cx="77.06" cy="41.37" rx="2.85" ry="1.26"/><ellipse class="cls-1" cx="74.74" cy="41.37" rx="2.85" ry="1.26"/><ellipse class="cls-1" cx="72.55" cy="40.9" rx="2.85" ry="1.26"/><ellipse class="cls-1" cx="18.45" cy="24.39" rx="11.16" ry="7.94"/><ellipse class="cls-1" cx="23.39" cy="16.45" rx="11.16" ry="7.94"/><ellipse class="cls-1" cx="24.85" cy="29.73" rx="11.16" ry="7.94"/><ellipse class="cls-1" cx="81.98" cy="32.32" rx="11.16" ry="7.94"/><ellipse class="cls-1" cx="82.77" cy="21.8" rx="11.16" ry="7.94"/><ellipse class="cls-1" cx="75.11" cy="17.03" rx="11.16" ry="7.94"/><ellipse class="cls-1" cx="36.9" cy="9.47" rx="11.16" ry="7.94"/><ellipse class="cls-1" cx="52.18" cy="10.11" rx="11.16" ry="7.94"/><ellipse class="cls-1" cx="65.76" cy="11.5" rx="11.16" ry="7.94"/><ellipse class="cls-1" cx="85.35" cy="24.97" rx="11.16" ry="7.94"/><ellipse class="cls-1" cx="91.55" cy="29.73" rx="11.16" ry="7.94"/><ellipse class="cls-1" cx="89.47" cy="21.8" rx="11.16" ry="7.94"/><ellipse class="cls-1" cx="82.77" cy="18.05" rx="11.16" ry="7.94"/><ellipse class="cls-1" cx="79.92" cy="13.86" rx="11.16" ry="7.94"/><ellipse class="cls-1" cx="72.55" cy="32.32" rx="11.16" ry="7.94"/><ellipse class="cls-1" cx="17.32" cy="33.23" rx="11.16" ry="7.94"/><ellipse class="cls-1" cx="11.16" cy="25.98" rx="11.16" ry="7.94"/><ellipse class="cls-1" cx="13.69" cy="19.44" rx="11.16" ry="7.94"/><ellipse class="cls-1" cx="22.73" cy="11.6" rx="11.16" ry="7.94"/><ellipse class="cls-1" cx="29.61" cy="34.69" rx="11.16" ry="7.94"/><ellipse class="cls-1" cx="53.76" cy="24.97" rx="11.16" ry="7.94"/><ellipse class="cls-1" cx="42.11" cy="7.94" rx="11.16" ry="7.94"/><ellipse class="cls-1" cx="55.85" cy="7.94" rx="11.16" ry="7.94"/><ellipse class="cls-1" cx="67.61" cy="9.1" rx="11.16" ry="7.94"/></svg>