<svg id="Layer_1" data-name="Layer 1" xmlns="http://www.w3.org/2000/svg" viewBox="0 0 78.81 78.62"><defs><style>.cls-1{fill:#979695;}</style></defs><path class="cls-1" d="M28.75,39.53,64.53,51.39a2.36,2.36,0,0,1,.91,3.94l-21.55,21a2.36,2.36,0,0,1-1.36.66L28,78.74a2.36,2.36,0,0,0-.91,4.38l10.83,6.35a2.23,2.23,0,0,1,.84.83l6.16,10.35a2.37,2.37,0,0,0,4.39-1L51,84.79a2.38,2.38,0,0,1,.68-1.41L72.71,62.32a2.37,2.37,0,0,1,3.93,1l11.7,36.47a2.36,2.36,0,0,0,4.17.65h0A2.36,2.36,0,0,0,93,98.87L89.71,46.33a2.37,2.37,0,0,1,.7-1.83l12.08-12a2.39,2.39,0,0,0,.61-1l1.5-5.3a2.37,2.37,0,0,0-3-2.91l-4.2,1.28a2.29,2.29,0,0,0-1,.58L83.32,38a2.34,2.34,0,0,1-1.86.67l-50.8-4.35a2.32,2.32,0,0,0-1.41.32l-1,.57A2.37,2.37,0,0,0,28.75,39.53Z" transform="translate(-25.88 -23.19)"/></svg>